<?xml version="1.0" encoding="utf-8"?>
<!-- Generator: Adobe Illustrator 27.5.0, SVG Export Plug-In . SVG Version: 6.00 Build 0)  -->
<svg version="1.1" xmlns="http://www.w3.org/2000/svg" xmlns:xlink="http://www.w3.org/1999/xlink" x="0px" y="0px"
	 viewBox="0 0 2200 1466" style="enable-background:new 0 0 2200 1466;" xml:space="preserve">
<g id="background">
	<rect x="0" style="fill:#FFFFFF;" width="2200" height="1466"/>
</g>
<g id="Objects">
	<g>
		<path style="fill:#3E5BAE;" d="M515.183,705.806c-71.223,0-138.183-27.735-188.545-78.097S248.54,510.387,248.54,439.165
			s27.735-138.182,78.097-188.544C377,200.258,443.96,172.522,515.183,172.522s138.182,27.735,188.544,78.098
			c50.363,50.362,78.097,117.322,78.097,188.544s-27.735,138.182-78.097,188.544C653.365,678.071,586.405,705.806,515.183,705.806z
			 M515.183,205.39c-62.444,0-121.149,24.317-165.303,68.471s-68.471,102.86-68.471,165.303c0,62.444,24.317,121.149,68.471,165.303
			c44.154,44.154,102.86,68.471,165.303,68.471c62.443,0,121.149-24.317,165.303-68.471c44.154-44.154,68.471-102.86,68.471-165.303
			s-24.317-121.149-68.471-165.303C636.332,229.707,577.626,205.39,515.183,205.39z"/>
		<path style="fill:#1F283D;" d="M626.157,478.929v46.534c0,24.344-19.628,44.279-43.971,44.334c-0.153,0-0.305,0-0.458,0
			c-16.854,0-33.216-2.115-48.836-6.095c-69.662-17.75-124.498-72.585-142.248-142.248c-3.98-15.62-6.095-31.982-6.095-48.836
			c0-0.153,0-0.305,0.001-0.458c0.055-24.343,19.991-43.971,44.334-43.971h46.534c11.463,0,20.756,9.293,20.756,20.756v51.753
			c0,11.463-9.293,20.756-20.756,20.756h-15.639c13.322,33.252,39.862,59.792,73.114,73.114v-15.639
			c0-11.463,9.293-20.756,20.756-20.756h51.753C616.864,458.173,626.157,467.466,626.157,478.929z"/>
	</g>
	<g>
		<path style="fill:#3E5BAE;" d="M1100,705.806c-71.222,0-138.182-27.735-188.544-78.097
			c-50.362-50.362-78.096-117.322-78.096-188.544s27.735-138.182,78.096-188.544c50.362-50.363,117.322-78.098,188.544-78.098
			s138.182,27.735,188.544,78.098c50.363,50.362,78.097,117.322,78.097,188.544s-27.735,138.182-78.097,188.544
			S1171.222,705.806,1100,705.806z M1100,205.39c-62.443,0-121.148,24.317-165.302,68.471s-68.471,102.86-68.471,165.303
			s24.317,121.149,68.471,165.303c44.154,44.154,102.859,68.471,165.302,68.471s121.149-24.317,165.303-68.471
			c44.154-44.154,68.47-102.86,68.47-165.303s-24.316-121.149-68.47-165.303C1221.149,229.707,1162.443,205.39,1100,205.39z"/>
		<path style="fill:#1F283D;" d="M1233.497,527.917c-20.378-18.906-61.238-56.056-98.28-85.139
			c-2.351-1.846-2.357-5.398-0.006-7.245c37.143-29.172,77.932-66.246,98.286-85.125c2.802-2.599,7.361-0.86,7.723,2.945
			c4.124,43.422,4.124,128.195,0,171.619C1240.859,528.777,1236.299,530.516,1233.497,527.917z M1227.367,343.525
			c-25.311,23.483-82.816,75.658-124.735,104.794c-1.584,1.101-3.679,1.101-5.263,0c-41.918-29.136-99.424-81.311-124.735-104.794
			c-2.839-2.634-1.363-7.386,2.47-7.939c25.687-3.707,71.822-6.019,124.896-6.019s99.209,2.312,124.896,6.019
			C1228.73,336.139,1230.206,340.891,1227.367,343.525z M958.781,524.973c-4.124-43.424-4.124-128.197,0-171.619
			c0.361-3.804,4.921-5.544,7.723-2.945c20.354,18.879,61.145,55.954,98.288,85.127c2.351,1.847,2.345,5.399-0.006,7.245
			c-37.045,29.083-77.904,66.231-98.282,85.137C963.702,530.517,959.142,528.777,958.781,524.973z M972.63,534.805
			c20.905-19.399,63.778-58.38,101.61-87.711c1.636-1.269,3.917-1.297,5.579-0.062c6.117,4.545,12.032,8.755,17.618,12.492l0,0
			c1.551,1.037,3.574,1.037,5.125,0l0,0c5.587-3.738,11.503-7.949,17.621-12.494c1.662-1.235,3.943-1.206,5.58,0.062
			c37.828,29.331,80.701,68.313,101.606,87.713c2.839,2.634,1.362,7.385-2.472,7.938c-25.687,3.708-71.823,6.019-124.898,6.019
			c-53.078,0-99.213-2.311-124.899-6.018C971.269,542.19,969.792,537.44,972.63,534.805z"/>
	</g>
	<g>
		<path style="fill:#3E5BAE;" d="M1684.819,705.806c-71.222,0-138.183-27.735-188.544-78.097
			c-50.362-50.362-78.097-117.322-78.097-188.544s27.735-138.182,78.097-188.544c50.362-50.363,117.322-78.098,188.544-78.098
			c71.222,0,138.182,27.735,188.544,78.098c50.362,50.362,78.096,117.322,78.096,188.544s-27.735,138.182-78.096,188.544
			C1823,678.071,1756.041,705.806,1684.819,705.806z M1684.819,205.39c-62.443,0-121.149,24.317-165.303,68.471
			c-44.154,44.155-68.471,102.86-68.471,165.303s24.317,121.149,68.471,165.303c44.154,44.154,102.86,68.471,165.303,68.471
			s121.148-24.317,165.302-68.471c44.154-44.154,68.47-102.859,68.47-165.303s-24.316-121.149-68.47-165.303
			S1747.262,205.39,1684.819,205.39z"/>
		<path style="fill:#1F283D;" d="M1786.568,515.891c21.508-20.378,34.578-47.261,34.578-76.727
			c0-63.676-61.041-115.287-136.328-115.287c-75.294,0-136.328,51.611-136.328,115.287s61.034,115.287,136.328,115.287
			c24.025,0,46.597-5.257,66.199-14.483l34.913,10.922c4.948,1.551,9.64-3.01,8.234-7.997L1786.568,515.891z M1620.472,459.831
			c-11.414,0-20.667-9.252-20.667-20.667c0-11.408,9.252-20.66,20.667-20.66c11.414,0,20.667,9.252,20.667,20.66
			C1641.139,450.579,1631.886,459.831,1620.472,459.831z M1684.818,459.831c-11.414,0-20.667-9.252-20.667-20.667
			c0-11.408,9.252-20.66,20.667-20.66c11.414,0,20.667,9.252,20.667,20.66C1705.485,450.579,1696.233,459.831,1684.818,459.831z
			 M1749.164,459.831c-11.414,0-20.667-9.252-20.667-20.667c0-11.408,9.252-20.66,20.667-20.66c11.414,0,20.667,9.252,20.667,20.66
			C1769.831,450.579,1760.579,459.831,1749.164,459.831z"/>
	</g>
	<g>
		<path style="fill:#3E5BAE;" d="M515.184,1293.478c-71.223,0-138.183-27.735-188.545-78.098
			c-50.362-50.361-78.097-117.322-78.097-188.544s27.735-138.183,78.097-188.544c50.362-50.362,117.322-78.097,188.545-78.097
			s138.182,27.735,188.544,78.097c50.363,50.362,78.097,117.322,78.097,188.544s-27.735,138.183-78.097,188.544
			C653.366,1265.743,586.407,1293.478,515.184,1293.478z M515.184,793.061c-62.444,0-121.149,24.317-165.303,68.471
			c-44.154,44.154-68.471,102.86-68.471,165.303s24.317,121.149,68.471,165.303c44.154,44.154,102.86,68.471,165.303,68.471
			c62.443,0,121.149-24.317,165.303-68.471c44.154-44.154,68.471-102.86,68.471-165.303s-24.317-121.149-68.471-165.303
			C636.333,817.379,577.627,793.061,515.184,793.061z"/>
		<path style="fill:#1F283D;" d="M625.157,934.625c-10.991-13.088-24.283-24.199-39.241-32.709c-4.123-2.337-8.69,2.217-6.376,6.364
			c3.895,6.976,7.455,14.646,10.643,22.94c1.798,4.686,3.464,9.505,4.974,14.467c0.767,2.517,3.38,3.991,5.945,3.38
			c7.503-1.798,14.862-3.931,21.898-6.472C626.296,941.397,627.41,937.322,625.157,934.625z M641.242,958.165
			c-1.223-2.241-3.931-3.2-6.292-2.241c-8.258,3.332-18.098,6.568-29.748,9.385c-2.589,0.623-4.267,3.152-3.763,5.765
			c2.673,13.807,4.339,28.274,4.938,43.1c0.096,2.505,2.169,4.471,4.662,4.471h42.441c2.745,0,4.926-2.349,4.674-5.07
			C656.32,993.666,650.399,974.897,641.242,958.165z M585.269,1035.029H528.05c-2.582,0-4.674,2.093-4.674,4.674v34.418
			c0,2.75,2.194,5.008,4.943,5.075c19.462,0.473,36.477,2.01,51.328,4.237c2.701,0.405,5.222-1.396,5.738-4.078
			c2.426-12.605,3.963-25.827,4.569-39.405C590.074,1037.272,587.949,1035.029,585.269,1035.029z M523.376,1158.394
			c0,6.602,5.929,11.624,12.441,10.537l0.072-0.012c1.834-0.264,3.572-0.959,5.046-2.073c13.292-9.996,25.254-27.651,33.955-50.279
			c1.299-3.372,2.521-6.831,3.656-10.363c0.963-2.996-1.034-6.14-4.151-6.576c-15.912-2.225-31.673-3.261-45.816-3.637
			c-2.855-0.076-5.203,2.223-5.203,5.08V1158.394z M455.465,1116.566c8.701,22.629,20.663,40.283,33.955,50.279
			c1.474,1.115,3.224,1.81,5.046,2.073l0.072,0.012c6.518,1.087,12.453-3.939,12.453-10.548v-57.314c0-2.857-2.348-5.156-5.203-5.08
			c-14.143,0.377-29.911,1.413-45.823,3.645c-3.118,0.438-5.113,3.584-4.147,6.581
			C452.956,1109.744,454.175,1113.196,455.465,1116.566z M502.305,1035.029h-57.219c-2.673,0-4.794,2.229-4.674,4.902
			c0.595,13.583,2.13,26.808,4.565,39.417c0.518,2.684,3.035,4.491,5.738,4.086c14.852-2.227,31.869-3.765,51.333-4.238
			c2.75-0.067,4.943-2.324,4.943-5.075v-34.418C506.991,1037.126,504.894,1035.029,502.305,1035.029z M502.125,974.477
			c-19.525-0.467-36.592-2.014-51.478-4.243c-2.673-0.408-5.142,1.378-5.657,4.015c-2.445,12.633-3.979,25.889-4.578,39.492
			c-0.12,2.673,2.002,4.902,4.674,4.902h57.219c2.589,0,4.686-2.097,4.686-4.686v-34.483
			C506.991,976.767,504.834,974.549,502.125,974.477z M494.55,884.742l-0.084,0.012c-1.822,0.264-3.56,0.959-5.034,2.073
			c-13.304,9.996-25.266,27.651-33.967,50.279c-1.306,3.404-2.541,6.88-3.68,10.439c-0.947,2.948,1.019,6.041,4.087,6.484
			c15.977,2.241,31.798,3.284,45.989,3.656c2.817,0.072,5.13-2.193,5.13-5.01v-57.159
			C506.991,888.877,501.106,883.795,494.55,884.742z M585.377,974.25c-0.515-2.649-2.996-4.423-5.657-4.015
			c-14.886,2.229-31.954,3.775-51.478,4.243c-2.709,0.072-4.866,2.289-4.866,4.998v34.483c0,2.589,2.097,4.686,4.686,4.686h57.207
			c2.685,0,4.806-2.241,4.686-4.926C589.344,1000.115,587.81,986.87,585.377,974.25z M578.569,947.558
			c-1.139-3.56-2.373-7.048-3.68-10.451c-8.701-22.629-20.663-40.283-33.955-50.279c-1.474-1.115-3.212-1.81-5.046-2.073
			l-0.072-0.012c-6.508-1.091-12.441,3.931-12.441,10.535v57.399c0,2.817,2.313,5.082,5.13,5.01
			c14.179-0.372,30.012-1.414,45.977-3.656C577.55,953.599,579.516,950.506,578.569,947.558z M425.166,965.308
			c-11.65-2.817-21.49-6.053-29.748-9.385c-2.361-0.959-5.07,0-6.292,2.241c-9.157,16.744-15.078,35.501-16.912,55.409
			c-0.252,2.721,1.93,5.07,4.662,5.07h42.441c2.505,0,4.566-1.966,4.674-4.471c0.599-14.826,2.265-29.293,4.938-43.1
			C429.433,968.461,427.755,965.932,425.166,965.308z M444.475,901.905c-14.97,8.498-28.274,19.62-39.265,32.721
			c-2.265,2.685-1.163,6.772,2.145,7.97c7.036,2.541,14.383,4.674,21.898,6.472c2.565,0.611,5.178-0.863,5.945-3.38
			c1.51-4.962,3.176-9.78,4.974-14.467c3.2-8.294,6.76-15.965,10.655-22.94C453.128,904.158,448.574,899.568,444.475,901.905z
			 M450.827,1145.392c-3.895-6.987-7.455-14.646-10.655-22.94c-1.794-4.655-3.447-9.459-4.953-14.384
			c-0.782-2.556-3.433-4.052-6.033-3.432c-7.45,1.776-14.744,3.893-21.721,6.409c-3.354,1.21-4.476,5.364-2.181,8.093
			c10.99,13.063,24.252,24.146,39.179,32.63C448.574,1154.093,453.128,1149.515,450.827,1145.392z M423.991,1039.499
			c-0.108-2.505-2.169-4.471-4.674-4.471h-42.441c-2.75,0-4.912,2.367-4.659,5.105c1.834,19.889,7.74,38.609,16.882,55.324
			c1.243,2.272,3.984,3.239,6.386,2.272c8.226-3.314,18.016-6.531,29.612-9.335c2.625-0.635,4.328-3.207,3.816-5.859
			C426.245,1068.746,424.593,1054.306,423.991,1039.499z M653.479,1035.029h-42.441c-2.493,0-4.566,1.966-4.662,4.471
			c-0.602,14.806-2.263,29.256-4.923,43.038c-0.512,2.651,1.191,5.222,3.815,5.857c11.59,2.804,21.387,6.021,29.615,9.335
			c2.402,0.967,5.143,0,6.385-2.272c9.14-16.712,15.045-35.427,16.881-55.312C658.402,1037.401,656.235,1035.029,653.479,1035.029z
			 M590.183,1122.451c-3.188,8.294-6.748,15.953-10.643,22.94c-2.301,4.123,2.253,8.702,6.352,6.376
			c14.926-8.484,28.189-19.566,39.178-32.629c2.296-2.729,1.173-6.884-2.182-8.093c-6.981-2.516-14.274-4.633-21.719-6.409
			c-2.6-0.62-5.252,0.875-6.034,3.432C593.63,1112.993,591.977,1117.796,590.183,1122.451z"/>
	</g>
	<g>
		<path style="fill:#3E5BAE;" d="M1684.819,1293.478c-71.222,0-138.183-27.735-188.544-78.098
			c-50.362-50.361-78.097-117.322-78.097-188.544s27.735-138.183,78.097-188.544c50.362-50.362,117.322-78.097,188.544-78.097
			c71.222,0,138.182,27.735,188.544,78.097c50.362,50.362,78.096,117.322,78.096,188.544s-27.735,138.183-78.096,188.544
			C1823,1265.743,1756.041,1293.478,1684.819,1293.478z M1684.819,793.061c-62.443,0-121.149,24.317-165.303,68.471
			c-44.154,44.154-68.471,102.86-68.471,165.303s24.317,121.149,68.471,165.303c44.154,44.154,102.86,68.471,165.303,68.471
			s121.148-24.317,165.302-68.471c44.154-44.154,68.47-102.86,68.47-165.303s-24.316-121.149-68.47-165.303
			C1805.967,817.379,1747.262,793.061,1684.819,793.061z"/>
		<path style="fill:#1F283D;" d="M1684.818,887.823c-60,0-108.641,48.641-108.641,108.641c0,73.418,59.953,138.639,90.785,167.326
			c9.996,9.301,25.525,9.155,35.369-0.306c30.728-29.534,91.128-96.548,91.128-167.02
			C1793.459,936.463,1744.819,887.823,1684.818,887.823z M1684.818,1042.044c-25.173,0-45.58-20.408-45.58-45.58
			c0-25.173,20.407-45.58,45.58-45.58s45.58,20.408,45.58,45.58C1730.399,1021.636,1709.991,1042.044,1684.818,1042.044z"/>
	</g>
	<g>
		<path style="fill:#3E5BAE;" d="M1100,1293.478c-71.222,0-138.182-27.735-188.544-78.098
			c-50.362-50.361-78.096-117.322-78.096-188.544s27.735-138.183,78.096-188.544c50.363-50.362,117.322-78.097,188.544-78.097
			s138.182,27.735,188.544,78.097c50.363,50.362,78.097,117.322,78.097,188.544s-27.735,138.183-78.097,188.544
			C1238.182,1265.743,1171.223,1293.478,1100,1293.478z M1100,793.061c-62.443,0-121.148,24.317-165.302,68.471
			c-44.154,44.154-68.471,102.86-68.471,165.303s24.317,121.149,68.471,165.303c44.154,44.154,102.859,68.471,165.302,68.471
			s121.149-24.317,165.303-68.471c44.154-44.154,68.47-102.86,68.47-165.303s-24.316-121.149-68.47-165.303
			C1221.15,817.379,1162.443,793.061,1100,793.061z"/>
		<path style="fill:#1F283D;" d="M1104.337,884.592c-86.724,0-146.92,58.156-146.92,142.159
			c0,85.703,60.536,142.329,150.661,142.329c21.256,0,32.479-1.19,39.791-4.251c7.142-3.061,10.543-7.312,10.543-15.474
			c0-9.182-5.271-15.304-17.515-15.304c-3.401,0-6.292,0.17-9.523,0.34c-4.761,0.34-10.203,0.68-18.535,0.68
			c-71.589,0-116.992-42.511-116.992-107.639c0-65.298,44.552-109,108.489-109c61.047,0,99.987,38.941,99.987,99.987
			c0,26.527-7.822,44.042-20.746,44.042c-8.502,0-13.264-7.142-13.264-19.555v-61.217c0-14.794-7.992-22.956-22.616-22.956
			c-14.454,0-22.446,8.162-22.446,22.956v0.85h-3.741c-6.632-15.474-20.746-23.806-39.281-23.806
			c-32.989,0-54.925,27.037-54.925,68.359c0,43.022,23.296,71.759,58.666,71.759c19.385,0,31.629-8.672,38.43-25.507h3.571
			c5.952,15.984,21.766,24.997,44.042,24.997c44.042,0,70.569-32.819,70.569-85.873
			C1242.585,936.286,1186.809,884.592,1104.337,884.592z M1099.406,1060.25c-13.434,0-21.256-11.563-21.256-31.288
			c0-19.895,7.992-31.799,21.256-31.799c13.094,0,21.256,11.903,21.256,31.799C1120.661,1048.687,1112.669,1060.25,1099.406,1060.25
			z"/>
	</g>
</g>
</svg>
